<svg
  width="100%"
  height="100%"
  xmlns="http://www.w3.org/2000/svg"
  fill="#c3c3c3"
  version="1.1">
   <path d="m17.16666,1.66667c-8.5596,0 -15.5,6.9404 -15.5,15.5c0,8.5596 6.9404,15.5 15.5,15.5c8.5596,0 15.5,-6.9404 15.5,-15.5c0,-8.5596 -6.9404,-15.5 -15.5,-15.5zm7.49397,20.72433c0.10379,0.10379 0.15915,0.24219 0.15915,0.3875c0,0.14531 -0.05536,0.29062 -0.15915,0.3875l-1.49464,1.50156c-0.11071,0.11071 -0.24911,0.15915 -0.3875,0.15915c-0.13839,0 -0.28371,-0.05536 -0.3875,-0.15915l-5.22433,-5.23125l-5.21741,5.23817c-0.10379,0.11071 -0.24911,0.15915 -0.3875,0.15915c-0.13839,0 -0.28371,-0.05536 -0.3875,-0.15915l-1.49464,-1.50156c-0.10379,-0.10379 -0.15915,-0.24219 -0.15915,-0.3875c0,-0.14531 0.05536,-0.29062 0.15915,-0.3875l5.23817,-5.25893l-5.25201,-5.18973c-0.21451,-0.21451 -0.21451,-0.56741 0,-0.78192l1.49464,-1.50156c0.10379,-0.10379 0.24219,-0.15915 0.3875,-0.15915c0.14531,0 0.28371,0.05536 0.3875,0.15915l5.23817,5.16897l5.23817,-5.16897c0.10379,-0.10379 0.24219,-0.15915 0.3875,-0.15915c0.14531,0 0.28371,0.05536 0.3875,0.15915l1.49464,1.50156c0.21451,0.21451 0.21451,0.56741 0,0.78192l-5.25201,5.18973l5.23125,5.25201z"/>
</svg>