<svg
  width="100%"
  height="100%"
  xmlns="http://www.w3.org/2000/svg"
  fill="#A5D5F5"
  version="1.1">
   <path d="m32.74159,15.73793l-4.04172,-4.04172a2.02066,2.02066 0 0 0 -2.85763,2.85763l0.59204,0.59204l-7.24667,0l0,-7.24667l0.59204,0.59204a2.02066,2.02066 0 0 0 2.85763,-2.85763l-4.04172,-4.04172a2.02015,2.02015 0 0 0 -2.85763,0l-4.04172,4.04172a2.02066,2.02066 0 0 0 2.85763,2.85763l0.59204,-0.59204l0,7.24667l-7.24667,0l0.59204,-0.59204a2.02066,2.02066 0 0 0 -2.85763,-2.85763l-4.04172,4.04172a2.02015,2.02015 0 0 0 0,2.85763l4.04172,4.04172a2.02066,2.02066 0 1 0 2.85763,-2.85763l-0.59204,-0.59204l7.24667,0l0,7.24667l-0.59204,-0.59204a2.02066,2.02066 0 0 0 -2.85763,2.85763l4.04172,4.04172a2.02015,2.02015 0 0 0 2.85763,0l4.04172,-4.04172a2.02066,2.02066 0 0 0 -2.85763,-2.85763l-0.59204,0.59204l0,-7.24667l7.24667,0l-0.59204,0.59204a2.02066,2.02066 0 1 0 2.85763,2.85763l4.04172,-4.04172a2.02015,2.02015 0 0 0 0,-2.85763z"/>
  </svg>